# xmcd
#
# Track frame offsets:
#	150
#	12066
#	23990
#	37225
#	57836
#	74080
#	86592
#	98572
#	116499
#	132421
#	149171
#	173994
#
# Disc length: 3066 seconds
#
# Revision: 1
# Processed by: cddbd v1.4PL0 Copyright (c) Steve Scherf et al.
# Submitted via: audiograbber 1.82.02
#
DISCID=ae0bf80c
DTITLE=Danni Leigh - A Shot Of Whiskey And A Prayer
DYEAR=2000
DGENRE=Country
TTITLE0=Chain Gang
TTITLE1=Longnecks, Cigarettes
TTITLE2=Trying To Get Over You
TTITLE3=What'cha Gonna Do
TTITLE4=Shiver Of Lonesome
TTITLE5=Honey I Do
TTITLE6=Little Things
TTITLE7=Can't Build A Better Love
TTITLE8=I Don't Feel That Way
TTITLE9=Back In Your Arms Again
TTITLE10=Cruel Heart
TTITLE11=Data Track
EXTD=
EXTT0=
EXTT1=
EXTT2=
EXTT3=
EXTT4=
EXTT5=
EXTT6=
EXTT7=
EXTT8=
EXTT9=
EXTT10=
EXTT11=
PLAYORDER=
